<svg width="25" height="24" viewBox="0 0 25 24" fill="none" xmlns="http://www.w3.org/2000/svg">
<g clip-path="url(#clip0_81_342)">
<path fill-rule="evenodd" clip-rule="evenodd" d="M2.34607 22.8916V23.3914C2.36658 23.5433 2.43631 23.6842 2.54467 23.7926C2.65302 23.901 2.79397 23.9707 2.94583 23.9912H22.9385C23.0938 23.9797 23.2397 23.9127 23.3498 23.8027C23.4598 23.6926 23.5267 23.5467 23.5383 23.3914C23.5612 20.9139 22.61 18.5267 20.8894 16.7439L19.6899 15.7442C17.7794 14.6414 15.6275 14.0238 13.423 13.9454C11.2184 13.867 9.02838 14.3302 7.04437 15.2944C5.43443 16.2438 4.14614 17.654 3.34577 19.3429C2.76132 20.4402 2.42029 21.6506 2.34607 22.8916Z" fill=""/>
<path fill-rule="evenodd" clip-rule="evenodd" d="M6.59481 5.99772C6.51237 7.23936 6.80857 8.47689 7.44442 9.54654C7.66343 9.93021 7.93221 10.2831 8.24399 10.5961C8.65668 11.0742 9.14683 11.4796 9.69366 11.7956C10.7516 12.4105 11.9638 12.7092 13.1863 12.6561C14.4089 12.6029 15.5905 12.2001 16.5912 11.4957L16.9908 11.1458L17.3907 10.7961L17.7407 10.3961C18.5129 9.49683 19.0155 8.39792 19.1909 7.22561C19.3664 6.0533 19.2075 4.8552 18.7324 3.76923C18.2573 2.68325 17.4852 1.75343 16.5051 1.08664C15.5251 0.419852 14.3767 0.0432207 13.1921 0H12.5427C10.9881 0.0959053 9.52284 0.759983 8.42612 1.86593C7.32939 2.97187 6.67771 4.44239 6.59481 5.99772Z" fill=""/>
</g>
<defs>
<clipPath id="clip0_81_342">
<rect width="21.0923" height="23.9913" fill="white" transform="translate(2.34613)"/>
</clipPath>
</defs>
</svg>
