<svg width="25" height="24" viewBox="0 0 25 24" fill="none" xmlns="http://www.w3.org/2000/svg">
<path fill-rule="evenodd" clip-rule="evenodd" d="M23.3941 3.14358C23.5706 3.2385 23.7262 3.37691 23.8498 3.54875C23.9738 3.72029 24.0628 3.92102 24.1104 4.13643C24.1579 4.35184 24.1628 4.57656 24.1246 4.79438L22.5416 13.7944C22.481 14.1343 22.319 14.4399 22.0831 14.6596C21.8471 14.8793 21.5516 14.9996 21.2466 15H7.96336L8.27337 17H21.6072C21.8404 17 22.0641 17.1054 22.229 17.2929C22.394 17.4804 22.4866 17.7348 22.4866 18C22.4866 18.2652 22.394 18.5196 22.229 18.7071C22.0641 18.8946 21.8404 19 21.6072 19H7.53572C7.32894 19 7.12875 18.9172 6.97033 18.7661C6.81191 18.615 6.70537 18.4053 6.66945 18.1737L4.15967 2H1.37946C1.14622 2 0.922521 1.89464 0.757589 1.70711C0.592658 1.51957 0.5 1.26522 0.5 1C0.5 0.734784 0.592658 0.48043 0.757589 0.292893C0.922521 0.105357 1.14622 2.20745e-08 1.37946 2.20745e-08H4.89732C5.1041 -4.93583e-05 5.30429 0.0827502 5.46271 0.233855C5.62114 0.384959 5.72767 0.594705 5.7636 0.82625L6.10054 3H22.8296C23.0248 2.99962 23.2177 3.04867 23.3941 3.14358ZM8.5 24C9.60457 24 10.5 23.1046 10.5 22C10.5 20.8954 9.60457 20 8.5 20C7.39543 20 6.5 20.8954 6.5 22C6.5 23.1046 7.39543 24 8.5 24ZM20.5 24C21.6046 24 22.5 23.1046 22.5 22C22.5 20.8954 21.6046 20 20.5 20C19.3954 20 18.5 20.8954 18.5 22C18.5 23.1046 19.3954 24 20.5 24Z" fill=""/>
</svg>
