<svg width="24" height="24" viewBox="0 0 24 24" fill="none" xmlns="http://www.w3.org/2000/svg">
<path fill-rule="evenodd" clip-rule="evenodd" d="M3.04798 0H7.10396C8.79595 0 10.1519 1.37999 10.1519 3.07319V7.16397C10.1519 8.86796 8.79595 10.236 7.10396 10.236H3.04798C1.36799 10.236 0 8.86796 0 7.16397V3.07319C0 1.37999 1.36799 0 3.04798 0ZM3.04798 13.7636H7.10396C8.79595 13.7636 10.1519 15.1328 10.1519 16.8368V20.9276C10.1519 22.6195 8.79595 23.9995 7.10396 23.9995H3.04798C1.36799 23.9995 0 22.6195 0 20.9276V16.8368C0 15.1328 1.36799 13.7636 3.04798 13.7636ZM20.952 0H16.896C15.204 0 13.848 1.37999 13.848 3.07319V7.16397C13.848 8.86796 15.204 10.236 16.896 10.236H20.952C22.632 10.236 24 8.86796 24 7.16397V3.07319C24 1.37999 22.632 0 20.952 0ZM16.896 13.7636H20.952C22.632 13.7636 24 15.1328 24 16.8368V20.9276C24 22.6195 22.632 23.9995 20.952 23.9995H16.896C15.204 23.9995 13.848 22.6195 13.848 20.9276V16.8368C13.848 15.1328 15.204 13.7636 16.896 13.7636Z" fill=""/>
</svg>
