<svg width="24" height="24" viewBox="0 0 24 24" fill="none" xmlns="http://www.w3.org/2000/svg">
<path fill-rule="evenodd" clip-rule="evenodd" d="M22.079 8.57445L22.9433 9.43845C23.6276 10.1105 23.9997 11.0225 23.9997 11.9825C24.0117 12.9425 23.6396 13.8557 22.9673 14.5385C22.9593 14.5472 22.9513 14.555 22.9433 14.5627C22.9393 14.5666 22.9353 14.5704 22.9313 14.5745L22.079 15.4265C21.7429 15.7625 21.5508 16.2185 21.5508 16.6997V17.9345C21.5508 19.9265 19.9302 21.5477 17.9375 21.5477H16.7011C16.2209 21.5477 15.7647 21.7385 15.4286 22.0745L14.5643 22.9385C13.856 23.6477 12.9317 23.9945 12.0074 23.9945C11.083 23.9945 10.1587 23.6477 9.45045 22.9517L8.57413 22.0745C8.23801 21.7385 7.78184 21.5477 7.30167 21.5477H6.06522C4.0725 21.5477 2.45191 19.9265 2.45191 17.9345V16.6997C2.45191 16.2185 2.25984 15.7625 1.92372 15.4145L1.0594 14.5625C-0.345106 13.1597 -0.35711 10.8665 1.0474 9.45165L1.92372 8.57445C2.25984 8.23845 2.45191 7.78245 2.45191 7.29045V6.06645C2.45191 4.07445 4.0725 2.45565 6.06522 2.45565H7.30167C7.78184 2.45565 8.23801 2.26245 8.57413 1.92645L9.43844 1.06245C10.8429 -0.352346 13.1358 -0.352346 14.5523 1.05165L15.4286 1.92645C15.7647 2.26245 16.2209 2.45565 16.7011 2.45565H17.9375C19.9302 2.45565 21.5508 4.07445 21.5508 6.06645V7.30365C21.5508 7.78245 21.7429 8.23845 22.079 8.57445ZM8.91025 16.1345C9.19835 16.1345 9.46245 16.0265 9.65452 15.8225L15.8248 9.65566C16.2329 9.24766 16.2329 8.57446 15.8248 8.16646C15.4166 7.75966 14.7564 7.75966 14.3482 8.16646L8.17798 14.3345C7.76984 14.7425 7.76984 15.4145 8.17798 15.8225C8.37005 16.0265 8.63415 16.1345 8.91025 16.1345ZM14.0361 15.0785C14.0361 15.6665 14.5043 16.1345 15.0925 16.1345C15.6687 16.1345 16.1369 15.6665 16.1369 15.0785C16.1369 14.5037 15.6687 14.0345 15.0925 14.0345C14.5043 14.0345 14.0361 14.5037 14.0361 15.0785ZM8.92225 7.86645C9.49846 7.86645 9.96663 8.33445 9.96663 8.91045C9.96663 9.49965 9.49846 9.96645 8.92225 9.96645C8.34604 9.96645 7.86587 9.49965 7.86587 8.91045C7.86587 8.33445 8.34604 7.86645 8.92225 7.86645Z" fill=""/>
</svg>
