<svg width="28" height="28" viewBox="0 0 28 28" fill="none" xmlns="http://www.w3.org/2000/svg">
<path fill-rule="evenodd" clip-rule="evenodd" d="M18.6537 6.95929C19.553 7.336 20.3474 7.92952 20.9674 8.68802C21.5875 9.44652 22.0144 10.3469 22.2108 11.3106C22.4072 12.2742 22.3671 13.2719 22.0942 14.2163C21.8212 15.1607 21.3236 16.0232 20.6448 16.7284C18.1047 19.5222 15.157 22.2838 12.4863 24.9776C12.314 25.151 12.0808 25.2483 11.8376 25.2483C11.5945 25.2483 11.3613 25.151 11.189 24.9776L3.08525 16.7855C2.11113 15.8043 1.50294 14.5126 1.3639 13.1297C1.22486 11.7468 1.56354 10.3578 2.32244 9.1986C3.08135 8.03935 4.21375 7.18119 5.52745 6.76978C6.84116 6.35836 8.25525 6.41901 9.52974 6.94145L9.58093 6.96108C10.3074 7.26125 10.9674 7.70456 11.5226 8.26518L11.8491 8.59343L12.1704 8.26518C13.0018 7.42338 14.0617 6.84992 15.2159 6.61745C16.37 6.38498 17.5665 6.50395 18.6537 6.95929Z" fill="#1F5DA0"/>
<circle cx="21.3334" cy="6.5" r="6" fill="#D71110"/>
<path d="M21.3345 9.59C20.5725 9.59 19.9845 9.332 19.5705 8.816C19.1625 8.3 18.9585 7.538 18.9585 6.53C18.9585 5.522 19.1625 4.76 19.5705 4.244C19.9845 3.728 20.5725 3.47 21.3345 3.47C22.0965 3.47 22.6815 3.728 23.0895 4.244C23.5035 4.76 23.7105 5.522 23.7105 6.53C23.7105 7.538 23.5035 8.3 23.0895 8.816C22.6815 9.332 22.0965 9.59 21.3345 9.59ZM21.3345 8.591C21.5925 8.591 21.8025 8.519 21.9645 8.375C22.1325 8.225 22.2585 8 22.3425 7.7C22.4265 7.394 22.4685 7.004 22.4685 6.53C22.4685 6.056 22.4265 5.669 22.3425 5.369C22.2585 5.063 22.1325 4.838 21.9645 4.694C21.8025 4.544 21.5925 4.469 21.3345 4.469C21.0765 4.469 20.8635 4.544 20.6955 4.694C20.5275 4.838 20.4015 5.063 20.3175 5.369C20.2395 5.669 20.2005 6.056 20.2005 6.53C20.2005 7.004 20.2395 7.394 20.3175 7.7C20.4015 8 20.5275 8.225 20.6955 8.375C20.8635 8.519 21.0765 8.591 21.3345 8.591Z" fill="white"/>
</svg>
