<svg width="24" height="24" viewBox="0 0 24 24" fill="none" xmlns="http://www.w3.org/2000/svg">
<g clip-path="url(#clip0_81_367)">
<path fill-rule="evenodd" clip-rule="evenodd" d="M21.381 7.30398V3.39918C21.381 2.01823 20.7619 2.30404 18.5715 2.30404H15.9523C15.9523 2.30404 15.9525 2.30393 16.2382 2.63726L21.381 7.30398Z" fill="#2BB673"/>
<path fill-rule="evenodd" clip-rule="evenodd" d="M6.10352e-05 11.8754C6.10352e-05 13.5421 1.61909 13.2564 2.95242 13.2564V23.1136C2.95242 23.5421 3.42852 23.7802 3.90471 23.7802H9.33335C9.55224 23.8346 9.78106 23.8346 9.99995 23.7802C10.1584 23.6483 10.2607 23.461 10.2858 23.2564V17.1135H13.7619V23.1611C13.7619 23.5897 14.1905 23.8278 14.6667 23.8278H20.0953C20.6191 23.8278 21.0476 23.8278 21.0476 23.1611V13.3041H22.762C23.0745 13.305 23.3758 13.1876 23.6054 12.9756C23.835 12.7637 23.9759 12.4727 24 12.1611C24 11.2563 23.5715 11.1136 22.762 10.304L13.2382 1.78019C11.7143 0.256383 11.2382 1.16118 10.1429 2.11356L0.619132 10.6374C0.571513 10.8755 6.10352e-05 11.3992 6.10352e-05 11.8754Z" fill=""/>
</g>
<defs>
<clipPath id="clip0_81_367">
<rect width="24" height="22.8571" fill="white" transform="translate(0 0.923096)"/>
</clipPath>
</defs>
</svg>
