<svg width="27" height="29" viewBox="0 0 27 29" fill="none" xmlns="http://www.w3.org/2000/svg">
<path fill-rule="evenodd" clip-rule="evenodd" d="M18.7071 13.2963C18.7071 14.5523 19.039 15.2925 19.7695 16.1456C20.3231 16.7741 20.5 17.5808 20.5 18.456C20.5 19.3302 20.2128 20.1601 19.6373 20.8339C18.884 21.6417 17.8215 22.1573 16.7372 22.247C15.1659 22.3809 13.5937 22.4937 12.0005 22.4937C10.4063 22.4937 8.83505 22.4263 7.26375 22.247C6.17846 22.1573 5.11602 21.6417 4.36367 20.8339C3.78822 20.1601 3.5 19.3302 3.5 18.456C3.5 17.5808 3.6779 16.7741 4.23049 16.1456C4.98384 15.2925 5.29392 14.5523 5.29392 13.2963V12.8703C5.29392 11.1883 5.71333 10.0885 6.577 9.01186C7.86106 7.4417 9.91935 6.5 11.9558 6.5H12.0452C14.1254 6.5 16.2502 7.48702 17.5125 9.12466C18.3314 10.1792 18.7071 11.2327 18.7071 12.8703V13.2963ZM9.07367 24.5608C9.07367 24.0573 9.53582 23.8266 9.96318 23.7279C10.4631 23.6222 13.5093 23.6222 14.0092 23.7279C14.4366 23.8266 14.8987 24.0573 14.8987 24.5608C14.8738 25.0402 14.5926 25.4653 14.204 25.7352C13.7001 26.128 13.1088 26.3767 12.4906 26.4664C12.1487 26.5107 11.8128 26.5117 11.4828 26.4664C10.8636 26.3767 10.2723 26.128 9.76938 25.7342C9.37978 25.4653 9.09852 25.0402 9.07367 24.5608Z" fill="#1F5DA0"/>
<circle cx="19" cy="7.5" r="6" fill="#D71110"/>
<path d="M19.0012 10.59C18.2392 10.59 17.6512 10.332 17.2372 9.816C16.8292 9.3 16.6252 8.538 16.6252 7.53C16.6252 6.522 16.8292 5.76 17.2372 5.244C17.6512 4.728 18.2392 4.47 19.0012 4.47C19.7632 4.47 20.3482 4.728 20.7562 5.244C21.1702 5.76 21.3772 6.522 21.3772 7.53C21.3772 8.538 21.1702 9.3 20.7562 9.816C20.3482 10.332 19.7632 10.59 19.0012 10.59ZM19.0012 9.591C19.2592 9.591 19.4692 9.519 19.6312 9.375C19.7992 9.225 19.9252 9 20.0092 8.7C20.0932 8.394 20.1352 8.004 20.1352 7.53C20.1352 7.056 20.0932 6.669 20.0092 6.369C19.9252 6.063 19.7992 5.838 19.6312 5.694C19.4692 5.544 19.2592 5.469 19.0012 5.469C18.7432 5.469 18.5302 5.544 18.3622 5.694C18.1942 5.838 18.0682 6.063 17.9842 6.369C17.9062 6.669 17.8672 7.056 17.8672 7.53C17.8672 8.004 17.9062 8.394 17.9842 8.7C18.0682 9 18.1942 9.225 18.3622 9.375C18.5302 9.519 18.7432 9.591 19.0012 9.591Z" fill="white"/>
</svg>
